# xmcd
#
# Track frame offsets:
#	150
#	20505
#	39562
#	66595
#
# Disc length: 1152 seconds
#
# Revision: 1
# Processed by: cddbd v1.4PL0 Copyright (c) Steve Scherf et al.
# Submitted via: CDmax 1.9
#
DISCID=33047e04
DTITLE=Mary J Blige - Everything - CD2
DYEAR=1997
DGENRE=R&b
TTITLE0=Everything (Instant Flava Mix)
TTITLE1=Everything (Curtis and Moore Dub)
TTITLE2=Everything (Full Crew Old Skool)
TTITLE3=Everyday
EXTD=
EXTT0=
EXTT1=
EXTT2=
EXTT3=
PLAYORDER=
